<svg xmlns="http://www.w3.org/2000/svg" viewBox="0 0 300 400" role="img" aria-labelledby="t2">
  <title id="t2">Cover buku Antologi Cerita Kita</title>
  <defs>
    <linearGradient id="g2" x1="0" y1="0" x2="1" y2="1">
      <stop offset="0%" stop-color="#c85a3a"/>
      <stop offset="100%" stop-color="#8a3d27"/>
    </linearGradient>
  </defs>
  <rect width="300" height="400" fill="url(#g2)"/>
  <rect x="16" y="16" width="268" height="368" fill="none" stroke="#faf8f3" stroke-opacity="0.35" stroke-width="1.5"/>
  <g transform="translate(150,120)" stroke="#faf8f3" stroke-width="2" fill="none" stroke-linecap="round" stroke-linejoin="round">
    <path d="M-24,-14 C-24,-20 -18,-24 -8,-24 L0,-24 L0,18 L-8,18 C-18,18 -24,14 -24,10 Z"/>
    <path d="M24,-14 C24,-20 18,-24 8,-24 L0,-24 L0,18 L8,18 C18,18 24,14 24,10 Z"/>
  </g>
  <text x="150" y="210" text-anchor="middle" font-family="Georgia, 'Playfair Display', serif" font-weight="700" font-size="26" fill="#faf8f3">
    <tspan x="150" dy="0">Antologi Cerita</tspan>
    <tspan x="150" dy="32">Kita</tspan>
  </text>
  <line x1="110" y1="278" x2="190" y2="278" stroke="#2d5a4a" stroke-width="3"/>
  <text x="150" y="304" text-anchor="middle" font-family="Poppins, sans-serif" font-size="14" fill="#e8dcc8">5 Penulis Komunitas</text>
</svg>
